:SAMPLES-PER-SECOND 30
:FULLY-SPECIFIED
:DEGREES
734
root  20.5005 38.2229 -2.081 -152.254 84.268 -147.396
RightUpLeg  -11.1127 -9.69807 4.59637
RightLeg  24.5971 0.0743578 0.470054
RightFoot  -8.10443 0.0926591 -5.17597
RightToes  -2.9104e-010 0 -3.6325e-017
Spine  5.26113 -0.341123 14.1154
Spine1  7.59781 1.40994 -0.0271426
HEad  -6.12429 8.28267 -9.66937
LeftShoulder1  -0.595935 5.04284 -32.5731
LeftArm  4.55801 0.602804 -46.9538
LeftForeArm  31.386 -14.5493 -7.51669
LeftHand  -0.0533013 6.91366 -1.11319
RightShoulder  -0.916268 -6.0058 30.0359
RightArm  11.3617 2.6575 43.4612
RightForeArm  17.7793 10.0551 5.87103
RightHand  -0.0103969 2.66542 -0.35546
LeftUpLeg  -7.07189 1.14844 6.85444
LeftLeg  62.4758 -0.647322 -0.747663
LeftFoot  7.97927 0.614425 -3.90711
LeftToes  -3.37426e-010 -1.91496e-010 5.23909e-011
735
root  21.6711 38.4099 -2.01458 -156.889 84.9908 -152.004
RightUpLeg  -8.40266 -9.38665 3.59738
RightLeg  23.4877 0.302034 0.863196
RightFoot  -9.5254 0.0110339 -4.78788
RightToes  -2.9104e-010 0 -3.6325e-017
Spine  5.34 0.0316253 15.0412
Spine1  7.47982 2.38551 -2.4374
HEad  -4.99917 8.48769 -9.03322
LeftShoulder1  -0.592455 5.05159 -32.1287
LeftArm  1.99925 2.50544 -46.2031
LeftForeArm  32.5367 -13.1644 -7.88952
LeftHand  -0.0532078 7.06667 -0.918798
RightShoulder  -0.926201 -6.02467 30.155
RightArm  12.4089 4.58091 44.4146
RightForeArm  18.2169 10.0609 6.22188
RightHand  0.0182702 2.78614 0.0467866
LeftUpLeg  -10.566 0.826249 5.61809
LeftLeg  62.0037 -0.752038 -0.940763
LeftFoot  5.54113 0.477458 -3.42282
LeftToes  -3.37426e-010 -1.91496e-010 5.23909e-011
736
root  22.8468 38.5408 -1.93738 -162.056 85.555 -157.11
RightUpLeg  -5.70644 -9.41655 2.72301
RightLeg  22.4479 0.572556 1.25264
RightFoot  -10.9597 -0.057891 -4.83385
RightToes  -2.9104e-010 0 -3.6325e-017
Spine  5.67505 0.455835 15.4193
Spine1  6.88963 3.15137 -3.88336
HEad  -3.92734 8.70528 -9.40495
LeftShoulder1  -0.594747 5.05801 -32.1184
LeftArm  0.307621 4.70017 -45.0068
LeftForeArm  31.7787 -12.0822 -8.1464
LeftHand  -0.045586 7.22783 -0.362061
RightShoulder  -0.908804 -6.0037 29.7665
RightArm  14.2517 5.52137 45.2962
RightForeArm  17.4764 11.1498 6.47442
RightHand  -0.00578574 4.03115 -0.346746
LeftUpLeg  -13.531 0.481463 4.47572
LeftLeg  59.2244 -1.26878 -1.76155
LeftFoot  2.87263 0.246553 -2.1394
LeftToes  -3.37426e-010 -1.91496e-010 5.23909e-011
737
root  24.0103 38.6539 -1.8734 -166.651 86.2394 -162.209
RightUpLeg  -3.54534 -9.22395 1.98928
RightLeg  21.058 1.05791 1.60729
RightFoot  -12.1655 -0.115268 -4.66725
RightToes  -2.9104e-010 0 -3.6325e-017
Spine  5.27326 1.11273 15.7356
Spine1  6.62667 3.94448 -5.36634
HEad  -3.11653 8.77114 -9.23003
LeftShoulder1  -0.619919 5.11943 -32.2174
LeftArm  -0.72579 6.60931 -43.8196
LeftForeArm  31.5917 -11.4581 -8.19021
LeftHand  -0.0512488 7.73843 -0.413168
RightShoulder  -0.927026 -6.04457 29.8962
RightArm  16.7529 6.71818 45.484
RightForeArm  16.2418 12.8855 6.43939
RightHand  0.0022627 3.13576 -0.19799
LeftUpLeg  -16.299 0.880863 3.43322
LeftLeg  54.0173 -1.76704 -2.14454
LeftFoot  -0.0916133 0.171341 -1.71761
LeftToes  -3.37426e-010 -1.91496e-010 5.23909e-011
738
root  25.1828 38.7342 -1.79845 -173.115 86.3697 -168.56
RightUpLeg  -0.402321 -9.16108 1.33906
RightLeg  19.1147 1.19794 1.75241
RightFoot  -13.3733 -0.169 -4.40057
RightToes  -2.9104e-010 0 -3.6325e-017
Spine  5.23196 1.48235 15.688
Spine1  6.70484 4.39982 -6.50655
HEad  -2.41928 8.83278 -9.97329
LeftShoulder1  -0.659482 5.21999 -32.2737
LeftArm  -2.7826 8.1905 -42.983
LeftForeArm  32.7526 -10.35 -8.13354
LeftHand  -0.0569594 7.77461 -0.654897
RightShoulder  -0.871287 -5.9341 29.2551
RightArm  19.3931 7.30696 46.2625
RightForeArm  14.1104 15.0213 6.09038
RightHand  0.0210691 3.14238 0.0707125
LeftUpLeg  -17.4944 1.52329 2.52654
LeftLeg  46.4587 -2.02381 -1.89862
LeftFoot  -1.75078 0.0807132 -0.861907
LeftToes  -3.37426e-010 -1.91496e-010 5.23909e-011
